<svg width="34" height="37" viewBox="0 0 34 37" fill="none" xmlns="http://www.w3.org/2000/svg">
<g clip-path="url(#clip0_176_4403)">
<path d="M9.20834 0.711914V8.53884C9.20834 8.93018 8.88959 9.25038 8.50001 9.25038H0.708344" stroke="#EBE1D2" stroke-width="0.8" stroke-linecap="round" stroke-linejoin="round"/>
<path d="M27.625 36.2888H1.41668C1.02709 36.2888 0.708344 35.9686 0.708344 35.5773V9.25038L9.20834 0.711914H26.9167C27.3063 0.711914 27.625 1.03211 27.625 1.42345V12.0965" stroke="#EBE1D2" stroke-width="0.8" stroke-linecap="round" stroke-linejoin="round"/>
<path d="M21.9583 33.4424H31.875C32.6574 33.4424 33.2917 32.8052 33.2917 32.0193V16.3655C33.2917 15.5795 32.6574 14.9424 31.875 14.9424H21.9583C21.1759 14.9424 20.5417 15.5795 20.5417 16.3655V32.0193C20.5417 32.8052 21.1759 33.4424 21.9583 33.4424Z" stroke="#EBE1D2" stroke-width="0.8" stroke-linecap="round" stroke-linejoin="round"/>
<path d="M33.2917 20.6348H20.5417" stroke="#EBE1D2" stroke-width="0.8" stroke-linecap="round" stroke-linejoin="round"/>
<path d="M33.2917 29.1729H20.5417" stroke="#EBE1D2" stroke-width="0.8" stroke-linecap="round" stroke-linejoin="round"/>
<path d="M33.2917 24.9043H20.5417" stroke="#EBE1D2" stroke-width="0.8" stroke-linecap="round" stroke-linejoin="round"/>
<path d="M24.7917 20.6348V33.4425" stroke="#EBE1D2" stroke-width="0.8" stroke-linecap="round" stroke-linejoin="round"/>
<path d="M29.0417 20.6348V33.4425" stroke="#EBE1D2" stroke-width="0.8" stroke-linecap="round" stroke-linejoin="round"/>
<path d="M23.375 4.98047H20.5417C19.7625 4.98047 19.125 5.62085 19.125 6.40355C19.125 7.18624 19.7625 7.82662 20.5417 7.82662H21.9583C22.7375 7.82662 23.375 8.46701 23.375 9.2497C23.375 10.0324 22.7375 10.6728 21.9583 10.6728H19.125" stroke="#EBE1D2" stroke-width="0.8" stroke-linecap="round" stroke-linejoin="round"/>
<path d="M21.25 3.55762V4.98069" stroke="#EBE1D2" stroke-width="0.8" stroke-linecap="round" stroke-linejoin="round"/>
<path d="M21.25 10.6729V12.0959" stroke="#EBE1D2" stroke-width="0.8" stroke-linecap="round" stroke-linejoin="round"/>
<path d="M6.375 18.5V20.6346" stroke="#EBE1D2" stroke-width="0.8" stroke-linecap="round" stroke-linejoin="round"/>
<path d="M14.875 12.0957V20.6342" stroke="#EBE1D2" stroke-width="0.8" stroke-linecap="round" stroke-linejoin="round"/>
<path d="M12.0417 15.6543V20.6351" stroke="#EBE1D2" stroke-width="0.8" stroke-linecap="round" stroke-linejoin="round"/>
<path d="M17.7083 13.5195V20.6349" stroke="#EBE1D2" stroke-width="0.8" stroke-linecap="round" stroke-linejoin="round"/>
<path d="M9.20834 14.9424V20.6347" stroke="#EBE1D2" stroke-width="0.8" stroke-linecap="round" stroke-linejoin="round"/>
<path d="M6.375 24.9043H17.7083" stroke="#EBE1D2" stroke-width="0.8" stroke-linecap="round" stroke-linejoin="round"/>
<path d="M6.375 27.75H17.7083" stroke="#EBE1D2" stroke-width="0.8" stroke-linecap="round" stroke-linejoin="round"/>
<path d="M6.375 30.5957H17.7083" stroke="#EBE1D2" stroke-width="0.8" stroke-linecap="round" stroke-linejoin="round"/>
</g>
<defs>
<clipPath id="clip0_176_4403">
<rect width="34" height="37" fill="white"/>
</clipPath>
</defs>
</svg>
