<svg width="252" height="174" viewBox="0 0 252 174" fill="none" xmlns="http://www.w3.org/2000/svg">
<path d="M0.502371 0.999989L164.999 0.999996C212.383 0.999998 250.794 39.4119 250.794 86.7958C250.794 134.18 212.383 172.592 164.999 172.592L0.504772 172.592" stroke="#EBE1D2" stroke-miterlimit="10"/>
<path d="M0.500031 14.2715L164.551 14.2715C204.606 14.2715 237.075 46.743 237.075 86.7957C237.075 126.851 204.604 159.32 164.551 159.32L0.502435 159.32" stroke="#EBE1D2" stroke-miterlimit="10"/>
<path d="M0.500031 26.208L162.924 26.208C196.387 26.208 223.512 53.3357 223.512 86.7961C223.512 120.259 196.384 147.384 162.924 147.384L0.502436 147.384" stroke="#EBE1D2" stroke-miterlimit="10"/>
<path d="M3.05176e-05 37.4971L159.112 37.4971C186.341 37.4971 208.414 59.5698 208.414 86.7986C208.414 114.027 186.341 136.1 159.112 136.1L0.0024371 136.1" stroke="#EBE1D2" stroke-miterlimit="10"/>
<path d="M0.502441 46.7168L154.473 46.7168C176.608 46.7168 194.554 64.6608 194.554 86.7985C194.554 108.934 176.61 126.88 154.473 126.88L0.502438 126.88" stroke="#EBE1D2" stroke-miterlimit="10"/>
<path d="M0.502441 56.0976L151.134 56.0977C168.089 56.0977 181.832 69.8408 181.832 86.7959C181.832 103.751 168.089 117.494 151.134 117.494L0.502439 117.494" stroke="#EBE1D2" stroke-miterlimit="10"/>
<g clip-path="url(#clip0_112_28)">
<path d="M212.493 15.1542C218.838 16.3842 223.372 16.3696 227.853 13.6743C225.975 18.5552 226.745 23.0227 229.055 29.0595C222.71 27.8295 218.177 27.843 213.694 30.5394C215.574 25.6575 214.803 21.1899 212.493 15.1542Z" fill="#EBE1D2"/>
</g>
<defs>
<clipPath id="clip0_112_28">
<rect width="21.6239" height="22.0193" fill="white" transform="translate(219.572 6.72168) rotate(40.015)"/>
</clipPath>
</defs>
</svg>
