<svg width="33" height="39" viewBox="0 0 33 39" fill="none" xmlns="http://www.w3.org/2000/svg">
<g clip-path="url(#clip0_176_4359)">
<path d="M9.75 1V9.25C9.75 9.6625 9.4125 10 9 10H0.75" stroke="#EBE1D2" stroke-width="0.8" stroke-linecap="round" stroke-linejoin="round"/>
<path d="M27.75 38.5H1.5C1.0875 38.5 0.75 38.1625 0.75 37.75V10L9.75 1H28.5C28.9125 1 29.25 1.3375 29.25 1.75V21.25" stroke="#EBE1D2" stroke-width="0.8" stroke-linecap="round" stroke-linejoin="round"/>
<path d="M5.25 29.5H12.75" stroke="#EBE1D2" stroke-width="0.8" stroke-linecap="round" stroke-linejoin="round"/>
<path d="M5.25 26.5H12.75" stroke="#EBE1D2" stroke-width="0.8" stroke-linecap="round" stroke-linejoin="round"/>
<path d="M5.25 23.5H14.25" stroke="#EBE1D2" stroke-width="0.8" stroke-linecap="round" stroke-linejoin="round"/>
<path d="M5.25 32.5H12.75" stroke="#EBE1D2" stroke-width="0.8" stroke-linecap="round" stroke-linejoin="round"/>
<path d="M22.5 35.5C26.2279 35.5 29.25 32.4779 29.25 28.75C29.25 25.0221 26.2279 22 22.5 22C18.7721 22 15.75 25.0221 15.75 28.75C15.75 32.4779 18.7721 35.5 22.5 35.5Z" stroke="#EBE1D2" stroke-width="0.8" stroke-linejoin="round"/>
<path d="M32.25 38.4995L27.27 33.5195" stroke="#EBE1D2" stroke-width="0.8" stroke-linecap="round" stroke-linejoin="round"/>
<path d="M25.5 27.25L21.75 31L19.5 28.75" stroke="#EBE1D2" stroke-width="0.8" stroke-linecap="round" stroke-linejoin="round"/>
<path d="M6 13H10.5" stroke="#EBE1D2" stroke-width="0.8" stroke-linecap="round" stroke-linejoin="round"/>
<path d="M8.25 19V13" stroke="#EBE1D2" stroke-width="0.8" stroke-linecap="round" stroke-linejoin="round"/>
<path d="M20.25 19L24.75 13" stroke="#EBE1D2" stroke-width="0.8" stroke-linecap="round" stroke-linejoin="round"/>
<path d="M24.75 19L20.25 13" stroke="#EBE1D2" stroke-width="0.8" stroke-linecap="round" stroke-linejoin="round"/>
<path d="M12.75 17.5H17.25" stroke="#EBE1D2" stroke-width="0.8" stroke-linecap="round" stroke-linejoin="round"/>
<path d="M12.75 19V15.25C12.75 14.005 13.755 13 15 13C16.245 13 17.25 14.005 17.25 15.25V19" stroke="#EBE1D2" stroke-width="0.8" stroke-linecap="round" stroke-linejoin="round"/>
</g>
<defs>
<clipPath id="clip0_176_4359">
<rect width="33" height="39" fill="white"/>
</clipPath>
</defs>
</svg>
