<svg width="124" height="179" viewBox="0 0 124 179" fill="none" xmlns="http://www.w3.org/2000/svg">
<path d="M1 178.438V61.8228C1 28.2311 28.2311 1 61.8228 1C95.4144 1 122.646 28.2311 122.646 61.8228V178.437" stroke="#223A39" stroke-miterlimit="10"/>
<path d="M10.4085 178.44L10.4085 62.1398C10.4085 33.7437 33.4283 10.7256 61.8228 10.7256C90.2189 10.7256 113.237 33.7454 113.237 62.1398V178.438" stroke="#223A39" stroke-miterlimit="10"/>
<path d="M18.8704 178.44L18.8704 63.2932C18.8704 39.5706 38.1019 20.3408 61.8228 20.3408C85.5454 20.3408 104.775 39.5723 104.775 63.2932V178.438" stroke="#223A39" stroke-miterlimit="10"/>
<path d="M26.8735 178.794L26.8735 65.995C26.8735 46.6918 42.5214 31.0439 61.8246 31.0439C81.1277 31.0439 96.7756 46.6918 96.7756 65.995V178.792" stroke="#223A39" stroke-miterlimit="10"/>
<path d="M33.4096 178.438L33.4096 69.285C33.4096 53.5928 46.1306 40.8701 61.8245 40.8701C77.5167 40.8701 90.2394 53.5911 90.2394 69.285V178.438" stroke="#223A39" stroke-miterlimit="10"/>
<path d="M40.0601 178.438L40.0601 71.6514C40.0601 59.6315 49.803 49.8887 61.8229 49.8887C73.8428 49.8887 83.5856 59.6315 83.5856 71.6514V178.438" stroke="#223A39" stroke-miterlimit="10"/>
<g clip-path="url(#clip0_176_4842)">
<path d="M105.376 32.0573C107.446 27.9692 108.316 24.8752 107.348 21.2962C110.311 23.5243 113.507 23.8658 118.071 23.4622C116.001 27.5503 115.131 30.6434 116.1 34.2232C113.136 31.9943 109.94 31.6528 105.376 32.0573Z" fill="#223A39"/>
</g>
<defs>
<clipPath id="clip0_176_4842">
<rect width="15.3297" height="15.61" fill="white" transform="translate(101 25.5938) rotate(-34.0991)"/>
</clipPath>
</defs>
</svg>
