<svg width="161" height="124" viewBox="0 0 161 124" fill="none" xmlns="http://www.w3.org/2000/svg">
<path d="M178.438 122.646L61.8228 122.646C28.2311 122.646 0.999999 95.4144 0.999997 61.8227C0.999996 28.2311 28.2311 0.999957 61.8228 0.999955L178.437 0.99995" stroke="#223A39" stroke-miterlimit="10"/>
<path d="M178.44 113.237L62.1403 113.237C33.7442 113.237 10.7261 90.2175 10.7261 61.8231C10.7261 33.4269 33.7459 10.4088 62.1403 10.4088L178.438 10.4088" stroke="#223A39" stroke-miterlimit="10"/>
<path d="M178.44 104.775L63.2937 104.775C39.5711 104.775 20.3413 85.5439 20.3413 61.823C20.3413 38.1004 39.5728 18.8706 63.2937 18.8706L178.438 18.8706" stroke="#223A39" stroke-miterlimit="10"/>
<path d="M178.794 96.7725L65.996 96.7725C46.6928 96.7725 31.0449 81.1246 31.0449 61.8214C31.0449 42.5183 46.6928 26.8704 65.996 26.8704L178.793 26.8704" stroke="#223A39" stroke-miterlimit="10"/>
<path d="M178.438 90.2363L69.285 90.2363C53.5928 90.2363 40.8701 77.5154 40.8701 61.8214C40.8701 46.1292 53.5911 33.4065 69.285 33.4065L178.438 33.4065" stroke="#223A39" stroke-miterlimit="10"/>
<path d="M178.438 83.585L71.6519 83.585C59.632 83.585 49.8892 73.8421 49.8892 61.8222C49.8892 49.8023 59.632 40.0595 71.6519 40.0595L178.438 40.0595" stroke="#223A39" stroke-miterlimit="10"/>
<g clip-path="url(#clip0_176_5136)">
<path d="M32.0577 18.2695C27.9697 16.1996 24.8757 15.3298 21.2967 16.2979C23.5248 13.3344 23.8663 10.1387 23.4627 5.57426C27.5507 7.64424 30.6439 8.51459 34.2237 7.54593C31.9948 10.51 31.6533 13.7057 32.0577 18.2695Z" fill="#223A39"/>
</g>
<defs>
<clipPath id="clip0_176_5136">
<rect width="15.3297" height="15.61" fill="white" transform="translate(25.5942 22.6455) rotate(-124.099)"/>
</clipPath>
</defs>
</svg>
