<svg width="173" height="251" viewBox="0 0 173 251" fill="none" xmlns="http://www.w3.org/2000/svg">
<path d="M1 250.293V86.4527C1 39.2578 39.2587 0.999023 86.4537 0.999023C133.649 0.999023 171.907 39.2578 171.907 86.4527V250.291" stroke="#223A39" stroke-miterlimit="10"/>
<path d="M14.2188 250.296L14.2188 86.8991C14.2188 47.0037 46.5607 14.6641 86.4538 14.6641C126.349 14.6641 158.689 47.0061 158.689 86.8991V250.294" stroke="#223A39" stroke-miterlimit="10"/>
<path d="M26.1074 250.296L26.1074 88.5193C26.1074 55.19 53.127 28.1729 86.4539 28.1729C119.783 28.1729 146.8 55.1924 146.8 88.5193V250.293" stroke="#223A39" stroke-miterlimit="10"/>
<path d="M37.3516 250.794L37.3516 92.3168C37.3516 65.1966 59.3363 43.2119 86.4565 43.2119C113.577 43.2119 135.561 65.1966 135.561 92.3168V250.792" stroke="#223A39" stroke-miterlimit="10"/>
<path d="M46.5342 250.294L46.5342 96.9375C46.5342 74.8905 64.4066 57.0156 86.456 57.0156C108.503 57.0156 126.378 74.8881 126.378 96.9375V250.294" stroke="#223A39" stroke-miterlimit="10"/>
<path d="M55.8779 250.294L55.8779 100.263C55.8779 83.3758 69.5662 69.6875 86.4538 69.6875C103.341 69.6875 117.03 83.3758 117.03 100.263V250.294" stroke="#223A39" stroke-miterlimit="10"/>
</svg>
