<svg width="174" height="252" viewBox="0 0 174 252" fill="none" xmlns="http://www.w3.org/2000/svg">
<path d="M172.592 251.293V86.7968C172.592 39.4129 134.18 1.00098 86.7958 1.00098C39.4119 1.00098 0.999965 39.4129 0.999965 86.7968V251.291" stroke="#EBE1D2" stroke-miterlimit="10"/>
<path d="M159.32 251.295L159.32 87.244C159.32 47.1888 126.848 14.7197 86.7957 14.7197C46.7405 14.7197 14.2714 47.1912 14.2714 87.244V251.292" stroke="#EBE1D2" stroke-miterlimit="10"/>
<path d="M147.384 251.295L147.384 88.8713C147.384 55.4085 120.256 28.2832 86.7957 28.2832C53.333 28.2832 26.2077 55.4109 26.2077 88.8713V251.293" stroke="#EBE1D2" stroke-miterlimit="10"/>
<path d="M136.095 251.795L136.095 92.6833C136.095 65.4545 114.022 43.3818 86.7934 43.3818C59.5646 43.3818 37.4919 65.4545 37.4919 92.6833V251.793" stroke="#EBE1D2" stroke-miterlimit="10"/>
<path d="M126.875 251.293L126.875 97.3229C126.875 75.1876 108.931 57.2412 86.7933 57.2412C64.6581 57.2412 46.7117 75.1852 46.7117 97.3229V251.293" stroke="#EBE1D2" stroke-miterlimit="10"/>
<path d="M117.494 251.292L117.494 100.661C117.494 83.706 103.751 69.9629 86.7958 69.9629C69.8407 69.9629 56.0975 83.706 56.0975 100.661V251.292" stroke="#EBE1D2" stroke-miterlimit="10"/>
<g clip-path="url(#clip0_57_18)">
<path d="M158.437 39.3022C157.207 32.9566 157.222 28.4232 159.917 23.9413C155.036 25.8199 150.569 25.0494 144.532 22.7394C145.762 29.0849 145.749 33.6175 143.052 38.1003C147.934 36.2207 152.402 36.9913 158.437 39.3022Z" fill="#EBE1D2"/>
</g>
<defs>
<clipPath id="clip0_57_18">
<rect width="21.6239" height="22.0193" fill="white" transform="matrix(-0.642988 -0.765876 -0.765876 0.642988 166.87 32.2227)"/>
</clipPath>
</defs>
</svg>
