<svg width="33" height="36" viewBox="0 0 33 36" fill="none" xmlns="http://www.w3.org/2000/svg">
<g clip-path="url(#clip0_176_4594)">
<path d="M22 13.1543H5.5C5.1203 13.1543 4.8125 13.4643 4.8125 13.8466V20.7697C4.8125 21.152 5.1203 21.462 5.5 21.462H22C22.3797 21.462 22.6875 21.152 22.6875 20.7697V13.8466C22.6875 13.4643 22.3797 13.1543 22 13.1543Z" stroke="#EBE1D2" stroke-width="0.7" stroke-linejoin="round"/>
<path d="M22.6875 17.3076H4.8125" stroke="#EBE1D2" stroke-width="0.7" stroke-linejoin="round"/>
<path d="M10.3125 21.462V13.1543" stroke="#EBE1D2" stroke-width="0.7" stroke-linejoin="round"/>
<path d="M25.4375 13.1543H30.9375C31.6938 13.1543 32.3125 13.7774 32.3125 14.5389V18.6928" stroke="#EBE1D2" stroke-width="0.7" stroke-linecap="round" stroke-linejoin="round"/>
<path d="M22.6875 9H15.8125" stroke="#EBE1D2" stroke-width="0.7" stroke-linecap="round" stroke-linejoin="round"/>
<path d="M22.6875 6.23047H15.8125" stroke="#EBE1D2" stroke-width="0.7" stroke-linecap="round" stroke-linejoin="round"/>
<path d="M17.875 27H13.0625" stroke="#EBE1D2" stroke-width="0.7" stroke-linecap="round" stroke-linejoin="round"/>
<path d="M22.6875 27H20.625" stroke="#EBE1D2" stroke-width="0.7" stroke-linecap="round" stroke-linejoin="round"/>
<path d="M17.875 29.7695H13.0625" stroke="#EBE1D2" stroke-width="0.7" stroke-linecap="round" stroke-linejoin="round"/>
<path d="M22.6875 29.7695H20.625" stroke="#EBE1D2" stroke-width="0.7" stroke-linecap="round" stroke-linejoin="round"/>
<path d="M8.9375 25.6152H6.1875C5.43125 25.6152 4.8125 26.2383 4.8125 26.9998C4.8125 27.7614 5.43125 28.3845 6.1875 28.3845H7.5625C8.31875 28.3845 8.9375 29.0075 8.9375 29.7691C8.9375 30.5306 8.31875 31.1537 7.5625 31.1537H4.8125" stroke="#EBE1D2" stroke-width="0.7" stroke-linecap="round" stroke-linejoin="round"/>
<path d="M6.875 24.2305V25.6151" stroke="#EBE1D2" stroke-width="0.7" stroke-linecap="round" stroke-linejoin="round"/>
<path d="M6.875 31.1543V32.5389" stroke="#EBE1D2" stroke-width="0.7" stroke-linecap="round" stroke-linejoin="round"/>
<path d="M29.2737 9.48484C28.2287 8.84099 26.7712 8.84099 25.7331 9.48484C25.5406 9.60253 25.4444 9.82407 25.4444 10.0525V26.3079L27.5069 28.3848L29.5694 26.3079V10.0525C29.5694 9.82407 29.4662 9.60253 29.2806 9.48484H29.2737Z" stroke="#EBE1D2" stroke-width="0.7" stroke-linecap="round" stroke-linejoin="round"/>
<path d="M8.9375 0.692383V8.30777C8.9375 8.68854 8.62813 9.00008 8.25 9.00008H0.6875" stroke="#EBE1D2" stroke-width="0.7" stroke-linecap="round" stroke-linejoin="round"/>
<path d="M26.8125 31.1539V34.6155C26.8125 34.9962 26.5031 35.3078 26.125 35.3078H1.375C0.996875 35.3078 0.6875 34.9962 0.6875 34.6155V9.00007L8.9375 0.692383H26.125C26.5031 0.692383 26.8125 1.00392 26.8125 1.38469V6.23084" stroke="#EBE1D2" stroke-width="0.7" stroke-linecap="round" stroke-linejoin="round"/>
</g>
<defs>
<clipPath id="clip0_176_4594">
<rect width="33" height="36" fill="white"/>
</clipPath>
</defs>
</svg>
