<svg width="37" height="37" viewBox="0 0 37 37" fill="none" xmlns="http://www.w3.org/2000/svg">
<g clip-path="url(#clip0_176_4582)">
<path d="M10.4525 30.575L4.87404 29.9346L5.69231 35.5771" stroke="#EBE1D2" stroke-width="0.8" stroke-linecap="round" stroke-linejoin="round"/>
<path d="M26.5475 6.42497L32.126 7.06535L31.3077 1.42285" stroke="#EBE1D2" stroke-width="0.8" stroke-linecap="round" stroke-linejoin="round"/>
<path d="M2.06346 25.3165C-0.832506 18.3292 0.967687 9.98998 7.06557 4.87402" stroke="#EBE1D2" stroke-width="0.8" stroke-linecap="round" stroke-linejoin="round"/>
<path d="M32.126 7.06525C25.8146 -0.462826 14.5937 -1.44475 7.06557 4.87371" stroke="#EBE1D2" stroke-width="0.8" stroke-linecap="round" stroke-linejoin="round"/>
<path d="M34.9365 11.6836C37.8325 18.6638 36.0323 27.003 29.9344 32.1261" stroke="#EBE1D2" stroke-width="0.8" stroke-linecap="round" stroke-linejoin="round"/>
<path d="M4.87404 29.9346C11.1925 37.4626 22.4063 38.4446 29.9344 32.1261" stroke="#EBE1D2" stroke-width="0.8" stroke-linecap="round" stroke-linejoin="round"/>
<path d="M18.5 28.4612C24.0016 28.4612 28.4615 24.0012 28.4615 18.4996C28.4615 12.998 24.0016 8.53809 18.5 8.53809C12.9984 8.53809 8.53846 12.998 8.53846 18.4996C8.53846 24.0012 12.9984 28.4612 18.5 28.4612Z" stroke="#EBE1D2" stroke-width="0.8" stroke-linecap="round" stroke-linejoin="round"/>
<path d="M20.6346 15.6543H17.7885C17.0058 15.6543 16.3654 16.2947 16.3654 17.0774C16.3654 17.8601 17.0058 18.5005 17.7885 18.5005H19.2115C19.9942 18.5005 20.6346 19.1408 20.6346 19.9235C20.6346 20.7062 19.9942 21.3466 19.2115 21.3466H16.3654" stroke="#EBE1D2" stroke-width="0.8" stroke-linecap="round" stroke-linejoin="round"/>
<path d="M18.5 13.5195V15.6541" stroke="#EBE1D2" stroke-width="0.8" stroke-linecap="round" stroke-linejoin="round"/>
<path d="M18.5 21.3457V23.4803" stroke="#EBE1D2" stroke-width="0.8" stroke-linecap="round" stroke-linejoin="round"/>
</g>
<defs>
<clipPath id="clip0_176_4582">
<rect width="37" height="37" fill="white"/>
</clipPath>
</defs>
</svg>
