<svg width="179" height="124" viewBox="0 0 179 124" fill="none" xmlns="http://www.w3.org/2000/svg">
<path d="M0.356132 1.00002L116.972 1.00001C150.563 1 177.794 28.2311 177.794 61.8228C177.794 95.4144 150.563 122.646 116.972 122.646L0.357855 122.646" stroke="#2E5957" stroke-miterlimit="10"/>
<path d="M0.354475 10.4082L116.654 10.4082C145.05 10.4082 168.069 33.428 168.069 61.8225C168.069 90.2186 145.049 113.237 116.654 113.237L0.356198 113.237" stroke="#2E5957" stroke-miterlimit="10"/>
<path d="M0.354473 18.8701L115.501 18.8701C139.224 18.8701 158.453 38.1016 158.453 61.8225C158.453 85.5451 139.222 104.775 115.501 104.775L0.356194 104.775" stroke="#2E5957" stroke-miterlimit="10"/>
<path d="M1.18794e-05 26.8731L112.799 26.8731C132.102 26.873 147.75 42.5209 147.75 61.8241C147.75 81.1273 132.102 96.7751 112.799 96.7751L0.00173019 96.7752" stroke="#2E5957" stroke-miterlimit="10"/>
<path d="M0.356169 33.4092L109.509 33.4092C125.202 33.4092 137.924 46.1301 137.924 61.8241C137.924 77.5163 125.203 90.239 109.509 90.239L0.356176 90.239" stroke="#2E5957" stroke-miterlimit="10"/>
<path d="M0.356189 40.0606L107.142 40.0605C119.162 40.0605 128.905 49.8034 128.905 61.8233C128.905 73.8432 119.162 83.586 107.142 83.586L0.356194 83.5861" stroke="#2E5957" stroke-miterlimit="10"/>
<g clip-path="url(#clip0_101_19)">
<path d="M150.641 11.0347C155.14 11.9066 158.354 11.8963 161.531 9.98552C160.199 13.4457 160.745 16.6128 162.383 20.8925C157.885 20.0205 154.671 20.0301 151.493 21.9416C152.826 18.4807 152.28 15.3136 150.641 11.0347Z" fill="#EBE1D2"/>
</g>
<defs>
<clipPath id="clip0_101_19">
<rect width="15.3297" height="15.61" fill="white" transform="translate(155.66 5.05664) rotate(40.015)"/>
</clipPath>
</defs>
</svg>
