<svg width="179" height="124" viewBox="0 0 179 124" fill="none" xmlns="http://www.w3.org/2000/svg">
<path d="M178.438 122.646L61.8228 122.646C28.2311 122.646 0.999999 95.4144 0.999997 61.8227C0.999996 28.2311 28.2311 0.999957 61.8228 0.999955L178.437 0.99995" stroke="#2E5957" stroke-miterlimit="10"/>
<path d="M178.44 113.237L62.1402 113.237C33.7441 113.237 10.726 90.2175 10.7259 61.8231C10.7259 33.4269 33.7458 10.4088 62.1402 10.4088L178.438 10.4088" stroke="#2E5957" stroke-miterlimit="10"/>
<path d="M178.44 104.775L63.2935 104.775C39.5709 104.775 20.3411 85.5439 20.3411 61.823C20.3411 38.1004 39.5726 18.8706 63.2934 18.8706L178.438 18.8706" stroke="#2E5957" stroke-miterlimit="10"/>
<path d="M178.794 96.7725L65.9959 96.7725C46.6928 96.7725 31.0449 81.1246 31.0449 61.8214C31.0449 42.5183 46.6927 26.8704 65.9959 26.8704L178.793 26.8704" stroke="#2E5957" stroke-miterlimit="10"/>
<path d="M178.438 90.2363L69.285 90.2363C53.5928 90.2363 40.8701 77.5154 40.8701 61.8214C40.8701 46.1292 53.5911 33.4065 69.285 33.4065L178.438 33.4065" stroke="#2E5957" stroke-miterlimit="10"/>
<path d="M178.438 83.585L71.6521 83.585C59.6322 83.585 49.8893 73.8421 49.8893 61.8222C49.8893 49.8023 59.6322 40.0595 71.6521 40.0595L178.438 40.0595" stroke="#2E5957" stroke-miterlimit="10"/>
<g clip-path="url(#clip0_101_18)">
<path d="M25.7596 23.6675C21.261 22.7955 18.0472 22.8058 14.8698 24.7166C16.2017 21.2564 15.6554 18.0893 14.0178 13.8097C18.5163 14.6816 21.7295 14.6721 24.9075 12.7605C23.5751 16.2215 24.1213 19.3886 25.7596 23.6675Z" fill="#EBE1D2"/>
</g>
<defs>
<clipPath id="clip0_101_18">
<rect width="15.3297" height="15.61" fill="white" transform="translate(20.7407 29.6455) rotate(-139.985)"/>
</clipPath>
</defs>
</svg>
