<svg width="38" height="35" viewBox="0 0 38 35" fill="none" xmlns="http://www.w3.org/2000/svg">
<g clip-path="url(#clip0_176_4491)">
<path d="M12.4231 6.56283V2.91699C12.4231 1.70658 13.4023 0.729492 14.6154 0.729492H23.3846C24.5977 0.729492 25.5769 1.70658 25.5769 2.91699V6.56283" stroke="#EBE1D2" stroke-width="0.8" stroke-linejoin="round"/>
<path d="M34.3462 6.5625H3.65385C2.03948 6.5625 0.730774 7.86834 0.730774 9.47917V31.3542C0.730774 32.965 2.03948 34.2708 3.65385 34.2708H34.3462C35.9605 34.2708 37.2692 32.965 37.2692 31.3542V9.47917C37.2692 7.86834 35.9605 6.5625 34.3462 6.5625Z" stroke="#EBE1D2" stroke-width="0.8" stroke-linejoin="round"/>
<path d="M31.4231 6.5625V34.2708" stroke="#EBE1D2" stroke-width="0.8" stroke-linejoin="round"/>
<path d="M6.57693 6.5625V34.2708" stroke="#EBE1D2" stroke-width="0.8" stroke-linejoin="round"/>
<path d="M9.5 6.5625V34.2708" stroke="#EBE1D2" stroke-width="0.8" stroke-linejoin="round"/>
<path d="M28.5 6.5625V34.2708" stroke="#EBE1D2" stroke-width="0.8" stroke-linejoin="round"/>
<path d="M21.1923 16.7705H18.2692C17.4654 16.7705 16.8077 17.4268 16.8077 18.2288C16.8077 19.0309 17.4654 19.6872 18.2692 19.6872H19.7308C20.5346 19.6872 21.1923 20.3434 21.1923 21.1455C21.1923 21.9476 20.5346 22.6038 19.7308 22.6038H16.8077" stroke="#EBE1D2" stroke-width="0.8" stroke-linecap="round" stroke-linejoin="round"/>
<path d="M19 15.3125V16.7708" stroke="#EBE1D2" stroke-width="0.8" stroke-linecap="round" stroke-linejoin="round"/>
<path d="M19 22.6045V24.0628" stroke="#EBE1D2" stroke-width="0.8" stroke-linecap="round" stroke-linejoin="round"/>
</g>
<defs>
<clipPath id="clip0_176_4491">
<rect width="38" height="35" fill="white"/>
</clipPath>
</defs>
</svg>
