<svg width="34" height="37" viewBox="0 0 34 37" fill="none" xmlns="http://www.w3.org/2000/svg">
<g clip-path="url(#clip0_176_4564)">
<path d="M3.3639 12.4694L2.53747 13.2995C1.98699 13.8525 1.98699 14.7491 2.53747 15.302L9.00867 21.8025C9.55915 22.3555 10.4516 22.3555 11.0021 21.8025L11.8286 20.9723C12.379 20.4194 12.379 19.5228 11.8286 18.9699L5.35735 12.4694C4.80687 11.9164 3.91437 11.9164 3.3639 12.4694Z" stroke="#EBE1D2" stroke-width="0.8" stroke-linecap="round" stroke-linejoin="round"/>
<path d="M6.56626 13.6761C5.73751 12.8436 5.73751 11.4988 6.56626 10.6734L12.0417 5.1732C12.8704 4.3407 14.2092 4.3407 15.0308 5.1732" stroke="#EBE1D2" stroke-width="0.8" stroke-linecap="round" stroke-linejoin="round"/>
<path d="M19.0896 9.25C19.9183 10.0825 19.9183 11.4273 19.0896 12.2527L13.6142 17.7529C12.7854 18.5854 11.4467 18.5854 10.625 17.7529" stroke="#EBE1D2" stroke-width="0.8" stroke-linecap="round" stroke-linejoin="round"/>
<path d="M14.6497 1.13148L13.8233 1.96165C13.2728 2.51462 13.2728 3.41116 13.8233 3.96413L20.2945 10.4646C20.845 11.0176 21.7375 11.0176 22.288 10.4646L23.1144 9.63444C23.6649 9.08148 23.6649 8.18494 23.1144 7.63197L16.6432 1.13148C16.0927 0.578517 15.2002 0.578517 14.6497 1.13148Z" stroke="#EBE1D2" stroke-width="0.8" stroke-linecap="round" stroke-linejoin="round"/>
<path d="M2.125 33.4421V31.3075C2.125 30.1263 3.07417 29.1729 4.25 29.1729H17C18.1758 29.1729 19.125 30.1263 19.125 31.3075V33.4421" stroke="#EBE1D2" stroke-width="0.8" stroke-linecap="round" stroke-linejoin="round"/>
<path d="M0.708344 36.2885V33.4424H20.5417V36.2885" stroke="#EBE1D2" stroke-width="0.8" stroke-linecap="round" stroke-linejoin="round"/>
<path d="M15.2646 16.1017L29.3179 30.1546C29.9058 30.738 30.855 30.738 31.4358 30.1546C32.0238 29.564 32.0238 28.6177 31.4358 28.0271L17.4463 13.9102" stroke="#EBE1D2" stroke-width="0.8" stroke-linecap="round" stroke-linejoin="round"/>
<path d="M4.95834 24.9043L6.37501 26.3274" stroke="#EBE1D2" stroke-width="0.8" stroke-linecap="round" stroke-linejoin="round"/>
<path d="M14.875 24.9043L13.4583 26.3274" stroke="#EBE1D2" stroke-width="0.8" stroke-linecap="round" stroke-linejoin="round"/>
<path d="M31.8396 15.5117C32.4204 15.2911 32.895 14.8429 33.1358 14.2381C33.6033 13.064 33.0225 11.7334 31.8467 11.2923L29.7004 10.4811C28.8858 10.1752 28.3546 9.39248 28.3546 8.51017C28.3546 7.35036 29.2825 6.41113 30.4371 6.41113H30.5008C31.6483 6.41113 32.5833 7.35036 32.5833 8.51017V8.54575" stroke="#EBE1D2" stroke-width="0.8" stroke-linecap="round" stroke-linejoin="round"/>
<path d="M29.0771 10.1035C28.4963 10.3241 28.0217 10.7724 27.7808 11.3772C27.3133 12.5512 27.8942 13.8818 29.07 14.3229L31.2163 15.1341C32.0308 15.4401 32.5621 16.2227 32.5621 17.1051C32.5621 18.2649 31.6342 19.2041 30.4796 19.2041H30.4158C29.2683 19.2041 28.3333 18.2649 28.3333 17.1051V17.0695" stroke="#EBE1D2" stroke-width="0.8" stroke-linecap="round" stroke-linejoin="round"/>
</g>
<defs>
<clipPath id="clip0_176_4564">
<rect width="34" height="37" fill="white"/>
</clipPath>
</defs>
</svg>
