<svg width="331" height="86" viewBox="0 0 331 86" fill="none" xmlns="http://www.w3.org/2000/svg">
<g clip-path="url(#clip0_197_9669)">
<path d="M52.8308 85.7897H51.3212V71.25H58.0865V72.1912L52.8308 71.5101V78.4394L57.2354 78.2041V79.1205L52.8308 78.8171V85.7959V85.7897Z" fill="white"/>
<path d="M65.3427 85.7653V71.2256H66.8523V85.7653H65.3427Z" fill="white"/>
<path d="M84.4523 82.7368L83.8869 71.2251H85.1356L84.9244 83.8391V86.0002L76.1586 73.3863L76.4879 85.7649H75.2392L75.6616 72.6804L74.8602 71.5286L76.0841 70.7793L84.4523 82.7368Z" fill="white"/>
<path d="M95.7837 71.2499L97.2002 70.7793L102.288 85.7897H100.71L98.4737 79.1205H95.4545L93.9697 85.7897H92.2737L96.5168 73.3615L95.7837 71.2499ZM96.6845 73.8321L95.6036 78.5508H98.2874L96.6845 73.8321Z" fill="white"/>
<path d="M118.646 82.7368L118.08 71.2251H119.329L119.118 83.8391V86.0002L110.352 73.3863L110.681 85.7649H109.433L109.855 72.6804L109.054 71.5286L110.277 70.7793L118.646 82.7368Z" fill="white"/>
<path d="M130.729 84.9541C129.58 84.2915 128.673 83.3874 128.008 82.2418C127.337 81.0962 127.008 79.8454 127.008 78.483C127.008 77.1207 127.343 75.8698 128.008 74.7242C128.673 73.5787 129.58 72.6746 130.729 71.9996C131.878 71.3246 133.133 70.9902 134.5 70.9902C135.693 70.9902 136.811 71.2503 137.848 71.7767C138.886 72.303 139.756 73.0151 140.464 73.9254C141.172 74.8357 141.644 75.8513 141.88 76.9783H139.923C139.799 76.6005 139.681 76.3219 139.569 76.1299C138.942 74.7862 138.078 73.7087 136.979 72.8975C135.879 72.0925 134.742 71.69 133.562 71.69C132.841 71.69 132.17 71.8386 131.561 72.1358C130.617 72.5755 129.896 73.2505 129.393 74.1545C128.89 75.0648 128.641 76.0866 128.641 77.2322C128.641 78.4707 128.915 79.6658 129.468 80.8238C130.095 82.1737 130.959 83.245 132.046 84.0438C133.139 84.8426 134.282 85.2389 135.475 85.2389C136.196 85.2389 136.867 85.0903 137.476 84.7931C139.327 83.9447 140.277 82.2356 140.327 79.6472H141.88C141.644 80.8981 141.178 82.0065 140.476 82.9601C139.774 83.9138 138.911 84.6507 137.873 85.1708C136.836 85.6848 135.711 85.9449 134.506 85.9449C133.139 85.9449 131.884 85.6105 130.735 84.9479L130.729 84.9541Z" fill="white"/>
<path d="M149.609 85.7653V71.2256H151.118V85.7653H149.609Z" fill="white"/>
<path d="M161.835 71.2499L163.251 70.7793L168.339 85.7897H166.761L164.525 79.1205H161.505L160.021 85.7897H158.325L162.568 73.3615L161.835 71.2499ZM162.729 73.8321L161.648 78.5508H164.332L162.729 73.8321Z" fill="white"/>
<path d="M177.08 71.2256V85.4805L181.913 84.8241V85.7653H175.577V71.2256H177.086H177.08Z" fill="white"/>
<path d="M213.299 78.5322C213.299 79.9255 212.951 81.1888 212.249 82.3158C211.547 83.4428 210.627 84.3345 209.478 84.9847C208.329 85.6349 207.099 85.9569 205.782 85.9569C204.465 85.9569 203.16 85.6225 202.011 84.9599C200.861 84.2974 199.954 83.3933 199.29 82.2477C198.619 81.1021 198.289 79.8512 198.289 78.4889C198.289 77.1266 198.625 75.8757 199.29 74.7301C199.954 73.5845 200.861 72.6804 202.011 72.0055C203.16 71.3305 204.415 70.9961 205.782 70.9961C206.974 70.9961 208.093 71.2624 209.13 71.7949C210.168 72.3275 211.037 73.0458 211.746 73.9561C212.454 74.8663 212.926 75.8757 213.162 76.9841H211.205C211.081 76.6064 210.963 76.3277 210.851 76.1358C210.224 74.792 209.36 73.7146 208.26 72.9034C207.161 72.0983 206.024 71.6958 204.844 71.6958C204.123 71.6958 203.452 71.8445 202.843 72.1417C201.899 72.5813 201.178 73.2563 200.675 74.1604C200.172 75.0707 199.923 76.0924 199.923 77.238C199.923 78.4765 200.197 79.6716 200.75 80.8296C201.377 82.1796 202.241 83.2508 203.328 84.0497C204.421 84.8485 205.564 85.2448 206.757 85.2448C207.478 85.2448 208.149 85.0962 208.757 84.7989C209.683 84.3779 210.404 83.7091 210.913 82.805C211.423 81.8947 211.677 80.873 211.677 79.7274C211.677 79.4425 211.671 79.232 211.652 79.0957H207.037V78.5322H213.305H213.299Z" fill="white"/>
<path d="M224.257 79.4243C224.071 79.5048 223.692 79.6225 223.127 79.7773C222.798 79.8888 222.599 79.9507 222.537 79.9631V85.7653H221.027V71.2256H222.841C224.537 71.2256 225.792 71.6095 226.612 72.3774C227.426 73.1452 227.836 74.0989 227.836 75.2445C227.817 75.9008 227.631 76.5387 227.27 77.1455C226.91 77.7586 226.37 78.2911 225.643 78.7432L228.022 85.7653H226.37L224.251 79.4243H224.257ZM222.537 79.5667L222.984 79.4243C223.232 79.3624 223.4 79.3129 223.481 79.2819C224.344 78.997 225.003 78.5264 225.463 77.8638C225.916 77.2012 226.146 76.3777 226.146 75.4116C226.146 74.7862 225.978 74.1794 225.649 73.6035C225.32 73.0214 224.885 72.557 224.351 72.204C223.816 71.851 223.257 71.6776 222.679 71.6776H222.537V79.5667Z" fill="white"/>
<path d="M238.844 84.9541C237.695 84.2915 236.788 83.3874 236.123 82.2418C235.452 81.0962 235.123 79.8454 235.123 78.483C235.123 77.1207 235.459 75.8698 236.123 74.7242C236.788 73.5787 237.695 72.6746 238.844 71.9996C239.994 71.3246 241.249 70.9902 242.615 70.9902C243.982 70.9902 245.237 71.3246 246.386 71.9996C247.536 72.6746 248.443 73.5787 249.12 74.7242C249.797 75.8698 250.132 77.1207 250.132 78.483C250.132 79.8454 249.797 81.0962 249.12 82.2418C248.443 83.3874 247.536 84.2915 246.386 84.9541C245.237 85.6229 243.982 85.9511 242.615 85.9511C241.249 85.9511 239.994 85.6167 238.844 84.9541ZM247.753 82.7868C248.256 81.8765 248.505 80.8547 248.505 79.7091C248.505 78.4892 248.231 77.3003 247.678 76.1361C247.051 74.7924 246.187 73.7149 245.088 72.9037C243.988 72.0987 242.851 71.6962 241.671 71.6962C240.95 71.6962 240.279 71.8448 239.671 72.142C238.726 72.5817 237.999 73.2567 237.49 74.1731C236.981 75.0896 236.726 76.1175 236.726 77.2631C236.726 78.4087 236.999 79.61 237.552 80.8361C238.18 82.1861 239.043 83.2574 240.143 84.0562C241.242 84.855 242.392 85.2513 243.584 85.2513C244.305 85.2513 244.976 85.1027 245.585 84.8055C246.529 84.3658 247.25 83.6908 247.753 82.7868Z" fill="white"/>
<path d="M263.539 71.2249H264.719L264.508 82.6375C264.489 83.6221 264.173 84.4209 263.539 85.034C262.911 85.647 262.116 85.9505 261.16 85.9505C260.563 85.9505 260.01 85.8204 259.507 85.5603C259.004 85.3003 258.6 84.9349 258.296 84.4581C257.991 83.9813 257.836 83.4425 257.836 82.8481C257.817 81.4857 257.811 77.6093 257.811 71.2188H259.389V82.7738C259.389 83.5912 259.501 84.2414 259.731 84.7367C259.961 85.2321 260.433 85.4736 261.16 85.4736C261.973 85.4736 262.619 85.1826 263.092 84.5943C263.564 84.006 263.8 83.1825 263.8 82.1174C263.8 80.272 263.713 76.6371 263.539 71.2188V71.2249Z" fill="white"/>
<path d="M278.747 77.6653C278.126 78.4022 277.256 78.9781 276.144 79.4054C275.927 79.4983 275.61 79.6036 275.2 79.7212C274.79 79.8389 274.516 79.9194 274.373 79.9689V85.7712H272.864V71.2314H274.678C276.25 71.2314 277.473 71.5782 278.356 72.278C279.238 72.9777 279.673 73.9499 279.673 75.2008C279.673 76.1111 279.362 76.9284 278.741 77.6653H278.747ZM277.299 77.8883C277.753 77.2257 277.983 76.4145 277.983 75.4547C277.983 74.8107 277.821 74.2038 277.498 73.6217C277.175 73.0396 276.747 72.5752 276.212 72.2098C275.678 71.8507 275.113 71.6711 274.516 71.6711H274.373V79.5602L274.821 79.4178C275.069 79.3559 275.237 79.3063 275.318 79.2754C276.181 79.0091 276.84 78.5447 277.299 77.8759V77.8883Z" fill="white"/>
<path d="M14.5372 2.40276L0 4.72491V1.52344H34.2058V4.72491L19.6687 2.40276V51.0688H14.5309V2.40276H14.5372Z" fill="white"/>
<path d="M89.3788 1.52344H93.8766L74.2825 51.7128L65.5291 28.739L56.5335 51.7128L37.4177 1.52344H43.2015L58.6209 43.1425L64.1624 25.296L55.1667 1.52344H60.9505L67.2127 18.4101L72.0336 1.52344H76.6122L68.5794 22.2556L76.3699 43.1487L89.3788 1.52344Z" fill="white"/>
<path d="M106.879 25.8534V50.109L125.107 47.7063V51.0688H101.741V1.52344H124.79V4.72491L106.879 2.40276V24.5715L121.895 23.8532V26.8937L106.879 25.8534Z" fill="white"/>
<path d="M165.742 40.7398L163.816 1.51714H168.072L167.351 44.4986V51.8613L137.476 8.88609L138.6 51.0687H134.344L135.792 6.48344L133.058 2.56365L137.233 0L165.742 40.7398Z" fill="white"/>
<path d="M190.07 2.40276L175.533 4.72491V1.52344H209.739V4.72491L195.202 2.40276V51.0688H190.064V2.40276H190.07Z" fill="white"/>
<path d="M239.621 1.52344H243.317L230.551 28.3365V51.0688H225.413V28.417L212.646 1.52344H218.349L229.755 26.0144L239.633 1.52344H239.621Z" fill="white"/>
<path d="M282.095 46.6661V51.1494H249.896C250.325 50.4001 252.307 48.0842 255.842 44.183C261.942 37.458 266.962 31.47 270.901 26.2126C274.833 20.9553 276.802 16.5649 276.802 13.0476C276.802 10.967 276.243 9.16498 275.119 7.64165C273.994 6.11832 272.547 4.96034 270.783 4.16152C269.018 3.3627 267.142 2.9602 265.16 2.9602C263.179 2.9602 261.545 3.30697 260.103 4.00052C258.016 4.96034 256.407 6.45271 255.283 8.48381C254.158 10.5149 253.599 12.8061 253.599 15.3698C253.599 16.3296 253.68 17.3451 253.841 18.4102H249.343V18.2492C249.343 15.1035 250.12 12.2054 251.673 9.56748C253.226 6.92333 255.351 4.81791 258.059 3.24505C260.762 1.67218 263.694 0.885742 266.85 0.885742C269.577 0.885742 272.093 1.44306 274.398 2.56388C276.697 3.68471 278.536 5.30092 279.896 7.40634C281.263 9.51794 281.946 11.9577 281.946 14.7319C281.946 15.1592 281.89 15.8528 281.785 16.8126C281.251 21.1349 278.25 26.4727 272.789 32.8199C267.328 39.1733 261.868 44.9075 256.407 50.0286L282.102 46.6661H282.095Z" fill="white"/>
<path d="M292.539 48.3066C288.631 46.0401 285.537 42.9563 283.263 39.0613C280.99 35.1663 279.853 30.8997 279.853 26.2554C279.853 21.6111 280.99 17.3446 283.263 13.4496C285.537 9.55454 288.631 6.47073 292.539 4.20431C296.446 1.9379 300.727 0.804688 305.386 0.804688C310.045 0.804688 314.326 1.9379 318.233 4.20431C322.141 6.47073 325.247 9.55454 327.546 13.4496C329.844 17.3446 331 21.6111 331 26.2554C331 30.8997 329.851 35.1663 327.546 39.0613C325.241 42.9563 322.141 46.0401 318.233 48.3066C314.326 50.573 310.045 51.7062 305.386 51.7062C300.727 51.7062 296.446 50.573 292.539 48.3066ZM322.893 40.9809C324.607 37.8848 325.465 34.3922 325.465 30.4972C325.465 26.2802 324.527 22.1994 322.657 18.2487C320.513 13.6601 317.569 10.0066 313.823 7.28193C310.076 4.56347 306.169 3.20114 302.1 3.20114C299.795 3.20114 297.546 3.68415 295.353 4.64397C292.141 6.13634 289.662 8.45849 287.923 11.6104C286.183 14.7623 285.314 18.2796 285.314 22.1746C285.314 26.0697 286.252 30.2062 288.122 34.2622C290.265 38.8508 293.222 42.5043 296.993 45.2289C300.77 47.9536 304.69 49.3097 308.759 49.3097C311.114 49.3097 313.363 48.8267 315.506 47.8669C318.718 46.3745 321.178 44.0771 322.893 40.9809Z" fill="white"/>
<path d="M36.7839 61.348C119.248 60.6111 211.758 60.6049 294.216 61.348C211.752 62.0911 119.242 62.0849 36.7839 61.348Z" fill="white"/>
</g>
<defs>
<clipPath id="clip0_197_9669">
<rect width="331" height="86" fill="white"/>
</clipPath>
</defs>
</svg>
