<svg width="179" height="124" viewBox="0 0 179 124" fill="none" xmlns="http://www.w3.org/2000/svg">
<path d="M0.356132 0.999992L116.972 0.999997C150.563 0.999999 177.794 28.2311 177.794 61.8228C177.794 95.4144 150.563 122.646 116.972 122.646L0.357834 122.646" stroke="#EBE1D2" stroke-miterlimit="10"/>
<path d="M0.354445 10.4082L116.654 10.4082C145.05 10.4082 168.068 33.428 168.068 61.8225C168.068 90.2186 145.049 113.237 116.654 113.237L0.356149 113.237" stroke="#EBE1D2" stroke-miterlimit="10"/>
<path d="M0.354473 18.8701L115.501 18.8701C139.224 18.8701 158.453 38.1016 158.453 61.8225C158.453 85.5451 139.222 104.775 115.501 104.775L0.356179 104.775" stroke="#EBE1D2" stroke-miterlimit="10"/>
<path d="M-1.86382e-05 26.873L112.798 26.873C132.102 26.873 147.75 42.5209 147.75 61.8241C147.75 81.1273 132.102 96.7751 112.798 96.7751L0.00168745 96.7751" stroke="#EBE1D2" stroke-miterlimit="10"/>
<path d="M0.356169 33.4092L109.509 33.4092C125.202 33.4092 137.924 46.1301 137.924 61.8241C137.924 77.5163 125.203 90.239 109.509 90.239L0.356166 90.239" stroke="#EBE1D2" stroke-miterlimit="10"/>
<path d="M0.356189 40.0605L107.142 40.0605C119.162 40.0605 128.905 49.8034 128.905 61.8233C128.905 73.8432 119.162 83.586 107.142 83.586L0.356187 83.586" stroke="#EBE1D2" stroke-miterlimit="10"/>
<g clip-path="url(#clip0_180_20)">
<path d="M151.987 102.028C156.264 103.673 159.43 104.225 162.892 102.899C160.976 106.073 160.96 109.287 161.824 113.787C157.548 112.142 154.382 111.589 150.919 112.916C152.836 109.741 152.852 106.527 151.987 102.028Z" fill="#EBE1D2"/>
</g>
<defs>
<clipPath id="clip0_180_20">
<rect width="15.3297" height="15.61" fill="white" transform="translate(157.974 97.0195) rotate(50.0842)"/>
</clipPath>
</defs>
</svg>
