<svg width="229" height="60" viewBox="0 0 229 60" fill="none" xmlns="http://www.w3.org/2000/svg">
<g clip-path="url(#clip0_176_6464)">
<path d="M36.5498 59.851H35.5073V49.708H40.1847V50.3641L36.5498 49.8884V54.7236L39.5969 54.5588V55.1993L36.5498 54.9847V59.851Z" fill="#3A4D58"/>
<path d="M45.2056 59.8354V49.6924H46.2481V59.8354H45.2056Z" fill="#3A4D58"/>
<path d="M58.4271 57.7209L58.0373 49.6923H58.9004L58.755 58.492V60.0001L52.6918 51.2004L52.9207 59.8353H52.0576L52.3515 50.7091L51.7977 49.9068L52.6453 49.3813L58.4333 57.7209H58.4271Z" fill="#3A4D58"/>
<path d="M66.2691 49.7078L67.2467 49.3813L70.7671 59.854H69.6751L68.1252 55.1991H66.0371L65.0101 59.854H63.8376L66.7734 51.1848L66.2691 49.7109V49.7078ZM66.8878 51.5113L66.1392 54.8042H67.9984L66.8909 51.5113H66.8878Z" fill="#3A4D58"/>
<path d="M82.0831 57.7209L81.6933 49.6923H82.5564L82.411 58.492V60.0001L76.3478 51.2004L76.5767 59.8353H75.7136L76.0075 50.7091L75.4537 49.9068L76.3014 49.3813L82.0893 57.7209H82.0831Z" fill="#3A4D58"/>
<path d="M90.4449 59.2693C89.6499 58.806 89.025 58.1747 88.561 57.3756C88.1001 56.5796 87.868 55.7027 87.868 54.7543C87.868 53.8059 88.1001 52.9291 88.561 52.1331C89.0219 51.337 89.6499 50.7027 90.4449 50.2332C91.2369 49.7637 92.1092 49.5273 93.0528 49.5273C93.8787 49.5273 94.649 49.7108 95.3667 50.0777C96.0844 50.4446 96.6876 50.9453 97.1764 51.5765C97.6652 52.2108 97.9931 52.9198 98.154 53.7064H96.8021C96.7155 53.4453 96.6319 53.2463 96.5577 53.1157C96.1215 52.1766 95.5245 51.4241 94.7635 50.8613C94.0025 50.2985 93.2136 50.0186 92.4 50.0186C91.8989 50.0186 91.4379 50.1212 91.0141 50.3296C90.3614 50.6343 89.8633 51.1069 89.5138 51.7382C89.1673 52.3725 88.991 53.0877 88.991 53.8837C88.991 54.7481 89.1797 55.5814 89.5602 56.3899C89.9933 57.329 90.5903 58.0783 91.3451 58.6349C92.1 59.1915 92.8919 59.4714 93.7179 59.4714C94.219 59.4714 94.6799 59.3688 95.1038 59.1604C96.3845 58.5696 97.0434 57.3756 97.0774 55.5721H98.154C97.99 56.4459 97.6683 57.217 97.1826 57.8824C96.7 58.5479 96.0999 59.0609 95.3822 59.4216C94.6645 59.7823 93.888 59.9627 93.0497 59.9627C92.1031 59.9627 91.2338 59.7295 90.4418 59.2662L90.4449 59.2693Z" fill="#3A4D58"/>
<path d="M103.503 59.8354V49.6924H104.545V59.8354H103.503Z" fill="#3A4D58"/>
<path d="M111.963 49.7078L112.941 49.3813L116.461 59.854H115.369L113.819 55.1991H111.731L110.704 59.854H109.532L112.468 51.1848L111.963 49.7109V49.7078ZM112.585 51.5113L111.837 54.8042H113.696L112.588 51.5113H112.585Z" fill="#3A4D58"/>
<path d="M122.512 49.6924V59.6395L125.853 59.1793V59.8354H121.467V49.6924H122.509H122.512Z" fill="#3A4D58"/>
<path d="M147.57 54.7885C147.57 55.7618 147.328 56.6418 146.843 57.4254C146.36 58.212 145.72 58.8308 144.928 59.2848C144.136 59.7388 143.282 59.9658 142.369 59.9658C141.457 59.9658 140.554 59.7326 139.762 59.2693C138.967 58.806 138.342 58.1747 137.878 57.3756C137.417 56.5796 137.185 55.7027 137.185 54.7543C137.185 53.806 137.417 52.9291 137.878 52.1331C138.339 51.337 138.967 50.7027 139.762 50.2332C140.554 49.7637 141.426 49.5273 142.369 49.5273C143.195 49.5273 143.966 49.7139 144.683 50.0839C145.401 50.454 146.004 50.9577 146.493 51.592C146.982 52.2263 147.31 52.9291 147.471 53.7064H146.119C146.032 53.4453 145.949 53.2463 145.874 53.1157C145.438 52.1766 144.841 51.4241 144.08 50.8613C143.319 50.2985 142.53 50.0186 141.717 50.0186C141.216 50.0186 140.755 50.1212 140.331 50.3296C139.678 50.6343 139.18 51.1069 138.83 51.7382C138.484 52.3725 138.308 53.0877 138.308 53.8837C138.308 54.7481 138.496 55.5815 138.877 56.3899C139.31 57.329 139.907 58.0783 140.662 58.6349C141.417 59.1915 142.209 59.4714 143.035 59.4714C143.536 59.4714 143.997 59.3688 144.42 59.1604C145.061 58.865 145.559 58.4017 145.911 57.7674C146.264 57.1331 146.44 56.4179 146.44 55.6219C146.44 55.426 146.434 55.2767 146.425 55.1803H143.229V54.7885H147.567H147.57Z" fill="#3A4D58"/>
<path d="M155.149 55.4107C155.019 55.4666 154.759 55.5475 154.366 55.6563C154.137 55.7341 154.001 55.7776 153.958 55.7869V59.8354H152.915V49.6924H154.171C155.344 49.6924 156.213 49.9598 156.779 50.4946C157.345 51.0294 157.627 51.698 157.627 52.494C157.614 52.9542 157.484 53.3957 157.237 53.8217C156.986 54.2477 156.612 54.6178 156.111 54.9349L157.756 59.8354H156.615L155.149 55.4107ZM153.961 55.5102L154.27 55.4107C154.443 55.3671 154.558 55.3329 154.613 55.3112C155.211 55.1153 155.668 54.7857 155.984 54.3193C156.299 53.8559 156.457 53.2838 156.457 52.6059C156.457 52.1706 156.343 51.7477 156.114 51.3435C155.885 50.9393 155.588 50.6159 155.217 50.3671C154.846 50.1215 154.462 49.9971 154.06 49.9971H153.961V55.504V55.5102Z" fill="#3A4D58"/>
<path d="M165.24 59.2693C164.445 58.806 163.82 58.1747 163.356 57.3756C162.895 56.5796 162.663 55.7027 162.663 54.7543C162.663 53.806 162.895 52.9291 163.356 52.1331C163.817 51.337 164.445 50.7027 165.24 50.2332C166.032 49.7637 166.904 49.5273 167.848 49.5273C168.791 49.5273 169.663 49.7637 170.455 50.2332C171.247 50.7027 171.878 51.337 172.346 52.1331C172.813 52.9291 173.048 53.806 173.048 54.7543C173.048 55.7027 172.813 56.5796 172.346 57.3756C171.878 58.1747 171.247 58.8028 170.455 59.2693C169.663 59.7326 168.791 59.9658 167.848 59.9658C166.904 59.9658 166.032 59.7326 165.24 59.2693ZM171.405 57.755C171.752 57.1206 171.928 56.4055 171.928 55.6094C171.928 54.7574 171.736 53.9272 171.359 53.1188C170.923 52.1797 170.325 51.4272 169.564 50.8644C168.803 50.3016 168.015 50.0217 167.201 50.0217C166.7 50.0217 166.239 50.1244 165.815 50.3327C165.162 50.6374 164.661 51.1101 164.309 51.7506C163.956 52.3911 163.78 53.1094 163.78 53.9055C163.78 54.7015 163.968 55.5441 164.349 56.3961C164.782 57.3352 165.382 58.0846 166.143 58.6411C166.904 59.1977 167.696 59.4776 168.522 59.4776C169.023 59.4776 169.484 59.375 169.908 59.1666C170.561 58.8619 171.059 58.3924 171.408 57.7581L171.405 57.755Z" fill="#3A4D58"/>
<path d="M182.325 49.6924H183.139L182.993 57.6557C182.981 58.3429 182.758 58.9026 182.325 59.3286C181.889 59.7546 181.341 59.9691 180.679 59.9691C180.265 59.9691 179.884 59.879 179.538 59.6986C179.188 59.5183 178.91 59.2633 178.7 58.9275C178.486 58.5947 178.381 58.2216 178.381 57.8049C178.369 56.8535 178.365 54.1513 178.365 49.6924H179.457V57.7552C179.457 58.3242 179.535 58.7782 179.693 59.1234C179.85 59.4685 180.178 59.6395 180.679 59.6395C181.246 59.6395 181.691 59.4343 182.016 59.0239C182.341 58.6134 182.505 58.0382 182.505 57.295C182.505 56.0046 182.446 53.4704 182.325 49.6924Z" fill="#3A4D58"/>
<path d="M192.849 54.1824C192.419 54.6955 191.819 55.0997 191.049 55.3951C190.897 55.4604 190.678 55.535 190.396 55.6159C190.115 55.6967 189.923 55.7558 189.827 55.7869V59.8354H188.784V49.6924H190.04C191.126 49.6924 191.974 49.9349 192.583 50.42C193.193 50.9051 193.496 51.586 193.496 52.4598C193.496 53.0941 193.282 53.6663 192.852 54.1793L192.849 54.1824ZM191.847 54.3379C192.163 53.8746 192.32 53.3087 192.32 52.6433C192.32 52.1955 192.209 51.7695 191.986 51.3653C191.763 50.961 191.466 50.6345 191.098 50.3827C190.73 50.1308 190.337 50.0064 189.926 50.0064H189.827V55.5133L190.136 55.4138C190.31 55.3702 190.424 55.336 190.48 55.3143C191.077 55.1277 191.535 54.8043 191.85 54.3379H191.847Z" fill="#3A4D58"/>
<path d="M10.057 1.67573L0 3.29576V1.06006H23.6653V3.29265L13.6083 1.67262V35.6247H10.0539V1.67573H10.057Z" fill="#3A4D58"/>
<path d="M61.8331 1.06006H64.9452L51.3894 36.0725L45.3323 20.0464L39.1113 36.0725L25.8896 1.06006H29.8896L40.556 30.0992L44.3888 17.6459L38.1678 1.06006H42.1677L46.5017 12.8418L49.8334 1.06006H53.0011L47.4452 15.5221L52.8341 30.0961L61.8331 1.06006Z" fill="#3A4D58"/>
<path d="M73.9441 18.0377V34.9593L86.5563 33.2833V35.6278H70.3896V1.06006H86.3336V3.29265L73.9441 1.67262V17.1421L84.3321 16.6384V18.7591L73.9441 18.0315V18.0377Z" fill="#3A4D58"/>
<path d="M114.667 28.4232L113.334 1.06001H116.279L115.778 31.0476V36.1844L95.1099 6.19683L95.8864 35.6247H92.9413L93.9406 4.52084L92.0504 1.78452L94.9397 -0.00341797L114.661 28.4201L114.667 28.4232Z" fill="#3A4D58"/>
<path d="M131.499 1.67573L121.442 3.29576V1.06006H145.107V3.29265L135.05 1.67262V35.6247H131.496V1.67573H131.499Z" fill="#3A4D58"/>
<path d="M165.778 1.06006H168.333L159.498 19.7665V35.6247H155.944V19.8225L147.112 1.06006H151.056L158.944 18.1465L165.778 1.06006Z" fill="#3A4D58"/>
<path d="M195.166 32.5557V35.6838H172.89C173.187 35.1614 174.557 33.5445 177.001 30.8269C181.224 26.1347 184.695 21.9587 187.417 18.2895C190.139 14.6235 191.501 11.5607 191.501 9.10422C191.501 7.65211 191.111 6.39589 190.334 5.33556C189.558 4.27524 188.556 3.46367 187.334 2.90708C186.112 2.34738 184.815 2.07064 183.445 2.07064C182.075 2.07064 180.945 2.31318 179.946 2.79514C178.502 3.46678 177.391 4.50845 176.615 5.92325C175.838 7.33805 175.448 8.93942 175.448 10.7242C175.448 11.3959 175.504 12.1017 175.615 12.8449H172.503V12.733C172.503 10.5377 173.038 8.51653 174.115 6.67263C175.188 4.82872 176.661 3.36106 178.533 2.26031C180.401 1.16268 182.43 0.612305 184.614 0.612305C186.505 0.612305 188.243 1.0041 189.836 1.78457C191.429 2.56504 192.698 3.69377 193.641 5.16454C194.585 6.63531 195.058 8.3393 195.058 10.2734C195.058 10.5719 195.021 11.0538 194.947 11.7255C194.575 14.7417 192.503 18.4637 188.726 22.8946C184.948 27.3256 181.171 31.3275 177.391 34.9002L195.169 32.5557H195.166Z" fill="#3A4D58"/>
<path d="M202.387 33.6999C199.683 32.1172 197.542 29.9686 195.971 27.2509C194.396 24.5333 193.61 21.5544 193.61 18.3175C193.61 15.0805 194.396 12.1017 195.971 9.38402C197.545 6.66636 199.683 4.51772 202.387 2.93501C205.09 1.3523 208.054 0.5625 211.274 0.5625C214.495 0.5625 217.458 1.35541 220.162 2.93501C222.866 4.51772 225.012 6.66636 226.606 9.38402C228.199 12.1017 228.994 15.0805 228.994 18.3175C228.994 21.5544 228.196 24.5364 226.606 27.2509C225.012 29.9686 222.866 32.1203 220.162 33.6999C217.458 35.2826 214.495 36.0724 211.274 36.0724C208.054 36.0724 205.087 35.2826 202.387 33.6999ZM223.388 28.5911C224.573 26.4331 225.167 23.9922 225.167 21.2746C225.167 18.333 224.517 15.4848 223.221 12.7298C221.74 9.52705 219.701 6.9773 217.112 5.08053C214.519 3.18066 211.816 2.23228 209 2.23228C207.407 2.23228 205.851 2.5681 204.332 3.23663C202.111 4.2783 200.397 5.89832 199.194 8.09359C197.991 10.292 197.387 12.7484 197.387 15.4661C197.387 18.1838 198.034 21.0693 199.333 23.8989C200.815 27.1017 202.86 29.6514 205.471 31.5482C208.082 33.4481 210.795 34.3965 213.61 34.3965C215.24 34.3965 216.796 34.0606 218.275 33.3921C220.496 32.3504 222.2 30.7491 223.385 28.5911H223.388Z" fill="#3A4D58"/>
<path d="M25.4473 42.7986C82.4977 42.2855 146.499 42.2824 203.55 42.7986C146.499 43.3147 82.4977 43.3116 25.4473 42.7986Z" fill="#3A4D58"/>
</g>
<defs>
<clipPath id="clip0_176_6464">
<rect width="229" height="60" fill="white"/>
</clipPath>
</defs>
</svg>
