<svg width="39" height="39" viewBox="0 0 39 39" fill="none" xmlns="http://www.w3.org/2000/svg">
<g clip-path="url(#clip0_176_4456)">
<path d="M18.6852 37.726C17.9191 38.492 16.6655 38.492 15.8995 37.726C15.1334 36.9599 15.1334 35.7063 15.8995 34.9402L16.1363 34.7035C16.9023 33.9374 18.1559 33.9374 18.922 34.7035C19.688 35.4695 19.688 36.7231 18.922 37.4892L18.6852 37.726Z" stroke="#EBE1D2" stroke-width="0.8" stroke-linecap="round" stroke-linejoin="round"/>
<path d="M14.5066 36.3327C13.7405 37.0988 12.487 37.0988 11.7209 36.3327C10.9548 35.5666 10.9548 34.313 11.7209 33.547L13.3505 31.9173C14.1166 31.1513 15.3702 31.1513 16.1362 31.9173C16.9023 32.6834 16.9023 33.937 16.1362 34.703L14.5066 36.3327Z" stroke="#EBE1D2" stroke-width="0.8" stroke-linecap="round" stroke-linejoin="round"/>
<path d="M11.7209 33.5465C10.9548 34.3126 9.70125 34.3126 8.93518 33.5465C8.16911 32.7805 8.16911 31.5269 8.93518 30.7608L10.5648 29.1312C11.3309 28.3651 12.5845 28.3651 13.3505 29.1312C14.1166 29.8973 14.1166 31.1508 13.3505 31.9169L11.7209 33.5465Z" stroke="#EBE1D2" stroke-width="0.8" stroke-linecap="round" stroke-linejoin="round"/>
<path d="M9.6316 30.065C8.86553 30.831 7.61196 30.831 6.84589 30.065C6.07981 29.2989 6.07981 28.0453 6.84589 27.2792L7.7791 26.346C8.54517 25.58 9.79874 25.58 10.5648 26.346C11.3309 27.1121 11.3309 28.3657 10.5648 29.1318L9.6316 30.065Z" stroke="#EBE1D2" stroke-width="0.8" stroke-linecap="round" stroke-linejoin="round"/>
<path d="M21.5893 33.4287L24.4934 36.3328C25.2595 37.0989 26.513 37.0989 27.2791 36.3328C28.0452 35.5667 28.0452 34.3132 27.2791 33.5471" stroke="#EBE1D2" stroke-width="0.8" stroke-linecap="round" stroke-linejoin="round"/>
<path d="M24.375 30.6425L27.2791 33.5466C28.0452 34.3127 29.2987 34.3127 30.0648 33.5466C30.8309 32.7805 30.8309 31.527 30.0648 30.7609L29.3684 30.0645" stroke="#EBE1D2" stroke-width="0.8" stroke-linecap="round" stroke-linejoin="round"/>
<path d="M19.3746 36.7858L20.3218 37.733C21.0878 38.4991 22.3414 38.4991 23.1075 37.733C23.8736 36.9669 23.8736 35.7133 23.1075 34.9473" stroke="#EBE1D2" stroke-width="0.8" stroke-linecap="round" stroke-linejoin="round"/>
<path d="M27.1607 27.8571L29.3684 30.0648C30.225 30.9214 31.6805 30.8239 32.4048 29.7654C32.9411 28.9784 32.7739 27.9059 32.1054 27.2304L26.5757 21.7007C24.4029 19.5279 20.872 19.5279 18.6991 21.7007L17.5848 22.815C15.9552 24.4446 13.3087 24.4446 11.6721 22.815L11.1429 22.2857L17.5848 15.8438C18.3648 15.0638 19.4234 14.625 20.5307 14.625H26.4643" stroke="#EBE1D2" stroke-width="0.8" stroke-linecap="round" stroke-linejoin="round"/>
<path d="M6.9643 27.1603L5.94751 26.1435C4.58948 24.7855 4.58948 22.5778 5.94751 21.2198L6.26787 20.8994" stroke="#EBE1D2" stroke-width="0.8" stroke-linecap="round" stroke-linejoin="round"/>
<path d="M7.66073 8.35742L13.2322 13.9289L2.78573 24.3753L0.696442 22.286" stroke="#EBE1D2" stroke-width="0.8" stroke-linecap="round" stroke-linejoin="round"/>
<path d="M32.0357 27.1603L33.0525 26.1435C34.4105 24.7855 34.4105 22.5778 33.0525 21.2198L32.7321 20.8994" stroke="#EBE1D2" stroke-width="0.8" stroke-linecap="round" stroke-linejoin="round"/>
<path d="M31.3393 8.35742L25.7679 13.9289L36.2143 24.3753L38.3036 22.286" stroke="#EBE1D2" stroke-width="0.8" stroke-linecap="round" stroke-linejoin="round"/>
<path d="M19.493 14.7643C19.1518 14.6738 18.8036 14.625 18.4484 14.625H12.5357" stroke="#EBE1D2" stroke-width="0.8" stroke-linecap="round" stroke-linejoin="round"/>
<path d="M21.5893 5.57129H18.8036C18.0375 5.57129 17.4107 6.19807 17.4107 6.96415C17.4107 7.73022 18.0375 8.357 18.8036 8.357H20.1964C20.9625 8.357 21.5893 8.98379 21.5893 9.74986C21.5893 10.5159 20.9625 11.1427 20.1964 11.1427H17.4107" stroke="#EBE1D2" stroke-width="0.8" stroke-linecap="round" stroke-linejoin="round"/>
<path d="M19.5 4.17871V5.57157" stroke="#EBE1D2" stroke-width="0.8" stroke-linecap="round" stroke-linejoin="round"/>
<path d="M19.5 11.1426V12.5354" stroke="#EBE1D2" stroke-width="0.8" stroke-linecap="round" stroke-linejoin="round"/>
<path d="M29.5843 6.26772C27.4671 2.92486 23.7482 0.696289 19.5 0.696289C15.2518 0.696289 11.5259 2.92486 9.41571 6.26772" stroke="#EBE1D2" stroke-width="0.8" stroke-linecap="round" stroke-linejoin="round"/>
</g>
<defs>
<clipPath id="clip0_176_4456">
<rect width="39" height="39" fill="white"/>
</clipPath>
</defs>
</svg>
