<svg width="124" height="179" viewBox="0 0 124 179" fill="none" xmlns="http://www.w3.org/2000/svg">
<path d="M1 178.438V61.8228C1 28.2311 28.2311 1 61.8228 1C95.4144 1 122.646 28.2311 122.646 61.8228V178.437" stroke="#2E5957" stroke-miterlimit="10"/>
<path d="M10.4084 178.44L10.4084 62.1398C10.4084 33.7437 33.4283 10.7256 61.8227 10.7256C90.2188 10.7256 113.237 33.7454 113.237 62.1398V178.438" stroke="#2E5957" stroke-miterlimit="10"/>
<path d="M18.8704 178.44L18.8704 63.2932C18.8704 39.5706 38.1019 20.3408 61.8228 20.3408C85.5453 20.3408 104.775 39.5723 104.775 63.2932V178.438" stroke="#2E5957" stroke-miterlimit="10"/>
<path d="M26.8735 178.794L26.8735 65.995C26.8735 46.6918 42.5214 31.0439 61.8246 31.0439C81.1277 31.0439 96.7756 46.6918 96.7756 65.995V178.792" stroke="#2E5957" stroke-miterlimit="10"/>
<path d="M33.4097 178.438L33.4097 69.285C33.4097 53.5928 46.1306 40.8701 61.8246 40.8701C77.5168 40.8701 90.2395 53.5911 90.2395 69.285V178.438" stroke="#2E5957" stroke-miterlimit="10"/>
<path d="M40.0601 178.438L40.0601 71.6514C40.0601 59.6315 49.8029 49.8887 61.8228 49.8887C73.8427 49.8887 83.5856 59.6315 83.5856 71.6514V178.438" stroke="#2E5957" stroke-miterlimit="10"/>
<g clip-path="url(#clip0_174_18)">
<path d="M11.0344 28.1526C11.9064 23.6541 11.8961 20.4402 9.98528 17.2629C13.4455 18.5947 16.6126 18.0485 20.8922 16.4109C20.0203 20.9094 20.0298 24.1226 21.9414 27.3006C18.4804 25.9681 15.3133 26.5144 11.0344 28.1526Z" fill="#EBE1D2"/>
</g>
<defs>
<clipPath id="clip0_174_18">
<rect width="15.3297" height="15.61" fill="white" transform="translate(5.0564 23.1338) rotate(-49.985)"/>
</clipPath>
</defs>
</svg>
