<svg width="221" height="259" viewBox="0 0 221 259" fill="none" xmlns="http://www.w3.org/2000/svg">
<mask id="mask0_25_45" style="mask-type:alpha" maskUnits="userSpaceOnUse" x="0" y="0" width="221" height="259">
<rect width="221" height="259" rx="30" fill="#D9D9D9"/>
</mask>
<g mask="url(#mask0_25_45)">
<path d="M193 351.559L193 207.261C193 165.695 159.305 132 117.739 132C76.1731 132 42.4777 165.695 42.4777 207.261L42.4777 351.557" stroke="#2E5957" stroke-miterlimit="10"/>
<path d="M181.358 351.562L181.358 207.654C181.358 172.517 152.874 144.035 117.739 144.035C82.6019 144.035 54.1196 172.52 54.1196 207.654L54.1196 351.56" stroke="#2E5957" stroke-miterlimit="10"/>
<path d="M170.887 351.562L170.887 209.081C170.887 179.727 147.091 155.933 117.739 155.933C88.3849 155.933 64.5902 179.729 64.5902 209.081L64.5902 351.56" stroke="#2E5957" stroke-miterlimit="10"/>
<path d="M160.984 352L160.984 212.425C160.984 188.539 141.622 169.177 117.736 169.177C93.8511 169.177 74.4886 188.539 74.4886 212.425L74.4886 351.998" stroke="#2E5957" stroke-miterlimit="10"/>
<path d="M152.897 351.56L152.897 216.495C152.897 197.078 137.156 181.335 117.737 181.335C98.3192 181.335 82.5764 197.076 82.5764 216.495L82.5765 351.56" stroke="#2E5957" stroke-miterlimit="10"/>
<path d="M144.668 351.56L144.668 219.424C144.668 204.551 132.612 192.495 117.739 192.495C102.865 192.495 90.8098 204.551 90.8098 219.424L90.8098 351.56" stroke="#2E5957" stroke-miterlimit="10"/>
<path d="M42 -94.5594L42 49.7388C42 91.3046 75.6954 125 117.261 125C158.827 125 192.522 91.3046 192.522 49.7388L192.522 -94.5573" stroke="#2E5957" stroke-miterlimit="10"/>
<path d="M53.642 -94.5619L53.642 49.3456C53.642 84.4826 82.1264 112.965 117.261 112.965C152.398 112.965 180.88 84.4804 180.88 49.3456L180.88 -94.5598" stroke="#2E5957" stroke-miterlimit="10"/>
<path d="M64.1125 -94.5617L64.1125 47.9188C64.1125 77.2727 87.9093 101.067 117.261 101.067C146.615 101.067 170.41 77.2706 170.41 47.9188L170.41 -94.5596" stroke="#2E5957" stroke-miterlimit="10"/>
<path d="M74.0156 -94.9998L74.0156 44.5754C74.0156 68.4608 93.3781 87.8232 117.264 87.8232C141.149 87.8232 160.511 68.4608 160.511 44.5754L160.511 -94.9977" stroke="#2E5957" stroke-miterlimit="10"/>
<path d="M82.1033 -94.5596L82.1033 40.5049C82.1033 59.9222 97.844 75.665 117.263 75.665C136.681 75.665 152.424 59.9243 152.424 40.5049L152.424 -94.5596" stroke="#2E5957" stroke-miterlimit="10"/>
<path d="M90.3324 -94.5595L90.3324 37.576C90.3324 52.4493 102.388 64.5049 117.261 64.5049C132.135 64.5049 144.19 52.4493 144.19 37.576L144.19 -94.5595" stroke="#2E5957" stroke-miterlimit="10"/>
</g>
<g clip-path="url(#clip0_25_45)">
<path d="M59.7373 110.05C61.0161 105.462 61.277 102.143 59.5761 98.7362C63.0299 100.339 66.3403 99.9837 70.8896 98.5746C69.6108 103.162 69.3491 106.481 71.0508 109.888C67.5963 108.284 64.2858 108.64 59.7373 110.05Z" fill="#E1CFB5"/>
</g>
<defs>
<clipPath id="clip0_25_45">
<rect width="16" height="16" fill="white" transform="translate(54 104.474) rotate(-45.817)"/>
</clipPath>
</defs>
</svg>
