<svg width="293" height="202" viewBox="0 0 293 202" fill="none" xmlns="http://www.w3.org/2000/svg">
<path d="M0.584868 0.999987L192.108 0.999996C247.277 0.999998 292 45.723 292 100.892C292 156.061 247.277 200.784 192.108 200.784L0.587664 200.784" stroke="#FFF6E9" stroke-miterlimit="10"/>
<path d="M0.582193 16.4521L191.587 16.4521C238.223 16.4521 276.027 54.2587 276.027 100.892C276.027 147.528 238.22 185.332 191.587 185.332L0.584992 185.332" stroke="#FFF6E9" stroke-miterlimit="10"/>
<path d="M0.582203 30.3496L189.693 30.3496C228.653 30.3496 260.235 61.9344 260.235 100.892C260.235 139.853 228.651 171.435 189.693 171.435L0.585003 171.435" stroke="#FFF6E9" stroke-miterlimit="10"/>
<path d="M4.97079e-05 43.4932L185.254 43.4932C216.957 43.4932 242.656 69.1924 242.656 100.895C242.656 132.597 216.957 158.297 185.254 158.297L0.00285169 158.297" stroke="#FFF6E9" stroke-miterlimit="10"/>
<path d="M0.585007 54.2275L179.852 54.2275C205.625 54.2275 226.52 75.1197 226.52 100.895C226.52 126.667 205.627 147.562 179.852 147.562L0.585003 147.562" stroke="#FFF6E9" stroke-miterlimit="10"/>
<path d="M0.584971 65.1504L175.965 65.1504C195.706 65.1504 211.707 81.1515 211.707 100.892C211.707 120.633 195.706 136.634 175.965 136.634L0.584968 136.634" stroke="#FFF6E9" stroke-miterlimit="10"/>
<g clip-path="url(#clip0_176_6269)">
<path d="M247.405 17.4801C254.793 18.9122 260.072 18.8952 265.29 15.757C263.103 21.4399 264 26.6414 266.689 33.67C259.301 32.238 254.024 32.2537 248.804 35.3931C250.993 29.709 250.096 24.5075 247.405 17.4801Z" fill="#FFF6E9"/>
</g>
<defs>
<clipPath id="clip0_176_6269">
<rect width="25.1767" height="25.637" fill="white" transform="translate(255.648 7.66211) rotate(40.015)"/>
</clipPath>
</defs>
</svg>
