<svg width="293" height="202" viewBox="0 0 293 202" fill="none" xmlns="http://www.w3.org/2000/svg">
<path d="M292.415 201L100.892 201C45.723 201 0.999998 156.277 0.999996 101.108C0.999993 45.9389 45.723 1.21587 100.892 1.21586L292.412 1.21586" stroke="#FFF6E9" stroke-miterlimit="10"/>
<path d="M292.418 185.548L101.413 185.548C54.7769 185.548 16.9731 147.741 16.9731 101.108C16.9731 54.4716 54.7797 16.6678 101.413 16.6678L292.415 16.6678" stroke="#FFF6E9" stroke-miterlimit="10"/>
<path d="M292.418 171.65L103.307 171.65C64.3467 171.65 32.7646 140.066 32.7646 101.108C32.7646 62.147 64.3495 30.565 103.307 30.565L292.415 30.565" stroke="#FFF6E9" stroke-miterlimit="10"/>
<path d="M293 158.507L107.746 158.507C76.0433 158.507 50.344 132.808 50.344 101.105C50.344 69.4026 76.0432 43.7034 107.746 43.7034L292.997 43.7034" stroke="#FFF6E9" stroke-miterlimit="10"/>
<path d="M292.415 147.772L113.148 147.772C87.3755 147.772 66.4805 126.88 66.4805 101.105C66.4805 75.3333 87.3727 54.4383 113.148 54.4383L292.415 54.4383" stroke="#FFF6E9" stroke-miterlimit="10"/>
<path d="M292.415 136.85L117.035 136.85C97.2943 136.85 81.2932 120.849 81.2932 101.108C81.2932 81.3668 97.2943 65.3657 117.035 65.3657L292.415 65.3657" stroke="#FFF6E9" stroke-miterlimit="10"/>
<g clip-path="url(#clip0_176_6279)">
<path d="M45.5949 184.52C38.2067 183.088 32.9284 183.105 27.7101 186.243C29.8974 180.56 29.0003 175.359 26.3108 168.33C33.6989 169.762 38.9761 169.746 44.1955 166.607C42.0071 172.291 42.9043 177.492 45.5949 184.52Z" fill="#FFF6E9"/>
</g>
<defs>
<clipPath id="clip0_176_6279">
<rect width="25.1767" height="25.637" fill="white" transform="translate(37.3522 194.338) rotate(-139.985)"/>
</clipPath>
</defs>
</svg>
