<svg width="124" height="179" viewBox="0 0 124 179" fill="none" xmlns="http://www.w3.org/2000/svg">
<path d="M1 178.439V61.8237C1 28.2321 28.2311 1.00098 61.8228 1.00098C95.4144 1.00098 122.646 28.2321 122.646 61.8237V178.438" stroke="#223A39" stroke-miterlimit="10"/>
<path d="M10.4087 178.441L10.4087 62.1408C10.4087 33.7447 33.4285 10.7266 61.8229 10.7266C90.2191 10.7266 113.237 33.7464 113.237 62.1408V178.439" stroke="#223A39" stroke-miterlimit="10"/>
<path d="M18.8706 178.441L18.8706 63.2942C18.8706 39.5716 38.1021 20.3418 61.823 20.3418C85.5456 20.3418 104.775 39.5733 104.775 63.2942V178.439" stroke="#223A39" stroke-miterlimit="10"/>
<path d="M26.8735 178.794L26.8735 65.996C26.8735 46.6928 42.5214 31.0449 61.8246 31.0449C81.1277 31.0449 96.7756 46.6928 96.7756 65.996V178.793" stroke="#223A39" stroke-miterlimit="10"/>
<path d="M33.4097 178.439L33.4097 69.286C33.4097 53.5937 46.1306 40.8711 61.8246 40.8711C77.5168 40.8711 90.2395 53.592 90.2395 69.286V178.439" stroke="#223A39" stroke-miterlimit="10"/>
<path d="M40.0601 178.439L40.0601 71.6524C40.0601 59.6325 49.8029 49.8896 61.8228 49.8896C73.8427 49.8896 83.5856 59.6325 83.5856 71.6524V178.439" stroke="#223A39" stroke-miterlimit="10"/>
</svg>
