<svg width="43" height="43" viewBox="0 0 43 43" fill="none" xmlns="http://www.w3.org/2000/svg">
<g clip-path="url(#clip0_176_4507)">
<path d="M21.5 5.37472C22.7722 5.37472 23.8036 4.34338 23.8036 3.07115C23.8036 1.79892 22.7722 0.767578 21.5 0.767578C20.2278 0.767578 19.1964 1.79892 19.1964 3.07115C19.1964 4.34338 20.2278 5.37472 21.5 5.37472Z" stroke="#EBE1D2" stroke-width="0.8" stroke-linejoin="round"/>
<path d="M21.5 42.2321C22.7722 42.2321 23.8036 41.2008 23.8036 39.9286C23.8036 38.6563 22.7722 37.625 21.5 37.625C20.2278 37.625 19.1964 38.6563 19.1964 39.9286C19.1964 41.2008 20.2278 42.2321 21.5 42.2321Z" stroke="#EBE1D2" stroke-width="0.8" stroke-linejoin="round"/>
<path d="M39.9286 23.8034C41.2008 23.8034 42.2321 22.7721 42.2321 21.4999C42.2321 20.2276 41.2008 19.1963 39.9286 19.1963C38.6563 19.1963 37.625 20.2276 37.625 21.4999C37.625 22.7721 38.6563 23.8034 39.9286 23.8034Z" stroke="#EBE1D2" stroke-width="0.8" stroke-linejoin="round"/>
<path d="M21.5 13.8214V5.375" stroke="#EBE1D2" stroke-width="0.8" stroke-linecap="round" stroke-linejoin="round"/>
<path d="M3.07142 23.8034C4.34365 23.8034 5.375 22.7721 5.375 21.4999C5.375 20.2276 4.34365 19.1963 3.07142 19.1963C1.7992 19.1963 0.767853 20.2276 0.767853 21.4999C0.767853 22.7721 1.7992 23.8034 3.07142 23.8034Z" stroke="#EBE1D2" stroke-width="0.8" stroke-linejoin="round"/>
<path d="M21.5 29.1787V37.6251" stroke="#EBE1D2" stroke-width="0.8" stroke-linecap="round" stroke-linejoin="round"/>
<path d="M13.8214 21.5H5.375" stroke="#EBE1D2" stroke-width="0.8" stroke-linecap="round" stroke-linejoin="round"/>
<path d="M29.1786 21.5H37.625" stroke="#EBE1D2" stroke-width="0.8" stroke-linecap="round" stroke-linejoin="round"/>
<path d="M16.0712 26.9287L10.0973 32.9026" stroke="#EBE1D2" stroke-width="0.8" stroke-linecap="round" stroke-linejoin="round"/>
<path d="M26.9287 16.0716L32.9027 10.0977" stroke="#EBE1D2" stroke-width="0.8" stroke-linecap="round" stroke-linejoin="round"/>
<path d="M26.9287 26.9287L32.9027 32.9026" stroke="#EBE1D2" stroke-width="0.8" stroke-linecap="round" stroke-linejoin="round"/>
<path d="M16.0712 16.0716L10.0973 10.0977" stroke="#EBE1D2" stroke-width="0.8" stroke-linecap="round" stroke-linejoin="round"/>
<path d="M10.0973 6.84176C10.9957 7.74016 10.9957 9.19908 10.0973 10.0975C9.19893 10.9959 7.74 10.9959 6.84161 10.0975C5.94322 9.19908 5.94322 7.74016 6.84161 6.84176C7.74 5.94337 9.19893 5.94337 10.0973 6.84176Z" stroke="#EBE1D2" stroke-width="0.8" stroke-linejoin="round"/>
<path d="M36.1584 32.9023C37.0568 33.8007 37.0568 35.2596 36.1584 36.158C35.26 37.0564 33.8011 37.0564 32.9027 36.158C32.0043 35.2596 32.0043 33.8007 32.9027 32.9023C33.8011 32.0039 35.26 32.0039 36.1584 32.9023Z" stroke="#EBE1D2" stroke-width="0.8" stroke-linejoin="round"/>
<path d="M10.0973 32.9023C10.9957 33.8007 10.9957 35.2596 10.0973 36.158C9.19893 37.0564 7.74 37.0564 6.84161 36.158C5.94322 35.2596 5.94322 33.8007 6.84161 32.9023C7.74 32.0039 9.19893 32.0039 10.0973 32.9023Z" stroke="#EBE1D2" stroke-width="0.8" stroke-linejoin="round"/>
<path d="M36.1584 6.84176C37.0568 7.74016 37.0568 9.19908 36.1584 10.0975C35.26 10.9959 33.8011 10.9959 32.9027 10.0975C32.0043 9.19908 32.0043 7.74016 32.9027 6.84176C33.8011 5.94337 35.26 5.94337 36.1584 6.84176Z" stroke="#EBE1D2" stroke-width="0.8" stroke-linejoin="round"/>
<path d="M21.5 29.1784C25.7408 29.1784 29.1786 25.7406 29.1786 21.4999C29.1786 17.2591 25.7408 13.8213 21.5 13.8213C17.2592 13.8213 13.8214 17.2591 13.8214 21.4999C13.8214 25.7406 17.2592 29.1784 21.5 29.1784Z" stroke="#EBE1D2" stroke-width="0.8" stroke-linecap="round" stroke-linejoin="round"/>
<path d="M23.8036 18.4287H20.7321C19.8875 18.4287 19.1964 19.1198 19.1964 19.9644C19.1964 20.8091 19.8875 21.5001 20.7321 21.5001H22.2679C23.1125 21.5001 23.8036 22.1912 23.8036 23.0359C23.8036 23.8805 23.1125 24.5716 22.2679 24.5716H19.1964" stroke="#EBE1D2" stroke-width="0.8" stroke-linecap="round" stroke-linejoin="round"/>
<path d="M21.5 16.8926V18.4283" stroke="#EBE1D2" stroke-width="0.8" stroke-linecap="round" stroke-linejoin="round"/>
<path d="M21.5 24.5713V26.107" stroke="#EBE1D2" stroke-width="0.8" stroke-linecap="round" stroke-linejoin="round"/>
</g>
<defs>
<clipPath id="clip0_176_4507">
<rect width="43" height="43" fill="white"/>
</clipPath>
</defs>
</svg>
